# xmcd
#
# Track frame offsets: 
#        150
#        16515
#        35419
#        63241
#        79820
#        98719
#        129963
#        144430
#        160940
#        187920
#        202773
#        217791
#        238134
#        269228
#        297138
#
# Disc length: 4206 seconds
#
# Revision: 0
# Processed by: cddbd v1.5.2PL0 Copyright (c) Steve Scherf et al.
# Submitted via: ExactAudioCopy v0.99pb3
#
DISCID=c4106c0f
DTITLE=Hosea Hargrove and Enter City Band - Crafts Prairie Blues
DYEAR=2000
DGENRE=Blues
TTITLE0=Jivin' Around
TTITLE1=If You Love Me Like You Say
TTITLE2=That's All Right
TTITLE3=Southern Country Boy
TTITLE4=I've Got My Mojo Working
TTITLE5=King Bee
TTITLE6=Big Boss Man
TTITLE7=Love My Life
TTITLE8=Big Gun
TTITLE9=Woke Up This Morning
TTITLE10=Hawaii
TTITLE11=Gambling Woman Blues
TTITLE12=Blues At Sunrise
TTITLE13=Boogaloo
TTITLE14=Boogaloop
EXTD=
EXTT0=
EXTT1=
EXTT2=
EXTT3=
EXTT4=
EXTT5=
EXTT6=
EXTT7=
EXTT8=
EXTT9=
EXTT10=
EXTT11=
EXTT12=
EXTT13=
EXTT14=
PLAYORDER=
